<svg xmlns="http://www.w3.org/2000/svg" viewBox="0 0 720 640" font-family="Segoe UI, Helvetica, Arial, sans-serif">
  <defs>
    <marker id="arr" viewBox="0 0 10 10" refX="9" refY="5" markerWidth="7" markerHeight="7" orient="auto-start-reverse">
      <path d="M 0 0 L 10 5 L 0 10 z" fill="#334e68"/>
    </marker>
  </defs>
  <rect width="720" height="640" fill="#ffffff"/>
  <rect x="100" y="8" width="200" height="34" rx="17" fill="#102a43"/>
  <text x="200" y="30" font-size="13" fill="#ffffff" text-anchor="middle" font-family="Consolas, monospace">system.yaml</text>
  <g stroke="#334e68" stroke-width="2" marker-end="url(#arr)">
    <line x1="200" y1="42" x2="200" y2="66"/>
    <line x1="200" y1="128" x2="200" y2="154"/>
    <line x1="200" y1="216" x2="200" y2="242"/>
    <line x1="200" y1="304" x2="200" y2="330"/>
    <line x1="200" y1="392" x2="200" y2="418"/>
    <line x1="200" y1="480" x2="200" y2="506"/>
    <line x1="426" y1="187" x2="364" y2="187"/>
    <line x1="426" y1="363" x2="364" y2="363"/>
    <line x1="426" y1="451" x2="364" y2="451"/>
    <line x1="364" y1="539" x2="426" y2="539"/>
  </g>
  <g stroke="#334e68" stroke-width="1.5" fill="#f0f4f8">
    <rect x="40" y="70" width="320" height="58" rx="9"/>
    <rect x="40" y="158" width="320" height="58" rx="9"/>
    <rect x="40" y="246" width="320" height="58" rx="9"/>
    <rect x="40" y="334" width="320" height="58" rx="9"/>
    <rect x="40" y="422" width="320" height="58" rx="9"/>
    <rect x="40" y="510" width="320" height="58" rx="9"/>
  </g>
  <g stroke="#829ab1" stroke-width="1.5" fill="#fbfdff" stroke-dasharray="5 3">
    <rect x="430" y="158" width="270" height="58" rx="9"/>
    <rect x="430" y="334" width="270" height="58" rx="9"/>
    <rect x="430" y="422" width="270" height="58" rx="9"/>
  </g>
  <rect x="430" y="496" width="270" height="120" rx="9" fill="#102a43"/>
  <g fill="#102a43" font-size="14" font-weight="bold">
    <text x="56" y="94">1 · Categorize</text>
    <text x="56" y="182">2 · Select baseline</text>
    <text x="56" y="270">3 · Generate SSP</text>
    <text x="56" y="358">4 · Scan the host</text>
    <text x="56" y="446">5 · Map findings to controls</text>
    <text x="56" y="534">6 · Report</text>
  </g>
  <g fill="#486581" font-size="11">
    <text x="56" y="112">FIPS 199: rate C, I, A and take the high water mark</text>
    <text x="56" y="200">149 low · 287 moderate · 370 high</text>
    <text x="56" y="288">every applicable control: statement + status</text>
    <text x="56" y="376">20 read only hardening checks</text>
    <text x="56" y="464">the hand curated evidence table</text>
    <text x="56" y="552">summary, detail, POA&amp;M, OSCAL</text>
  </g>
  <g fill="#334e68" font-size="12" font-weight="bold">
    <text x="446" y="180">NIST OSCAL content</text>
    <text x="446" y="356">The Linux host</text>
    <text x="446" y="444">check_control_map.yaml</text>
  </g>
  <g fill="#627d98" font-size="10.5">
    <text x="446" y="197">official catalog + 3 baselines,</text>
    <text x="446" y="209">downloaded once, cached</text>
    <text x="446" y="373">reached read only, through</text>
    <text x="446" y="385">the Host interface</text>
    <text x="446" y="461">hand curated, one written</text>
    <text x="446" y="473">rationale per check</text>
  </g>
  <text x="446" y="516" font-size="11" font-weight="bold" fill="#9fb3c8">SIX ARTIFACTS</text>
  <g fill="#ffffff" font-size="11" font-family="Consolas, monospace">
    <text x="446" y="533">ssp.md · ssp.json</text>
    <text x="446" y="550">compliance_report.md</text>
    <text x="446" y="567">poam.md · poam.json</text>
    <text x="446" y="584">assessment_results.json</text>
  </g>
</svg>
