<svg xmlns="http://www.w3.org/2000/svg" viewBox="0 0 720 270" font-family="Segoe UI, Helvetica, Arial, sans-serif">
  <defs>
    <marker id="arr" viewBox="0 0 10 10" refX="9" refY="5" markerWidth="6" markerHeight="6" orient="auto-start-reverse">
      <path d="M 0 0 L 10 5 L 0 10 z" fill="#627d98"/>
    </marker>
  </defs>
  <rect width="720" height="270" fill="#ffffff"/>
  <text x="40" y="28" font-size="11" font-weight="bold" fill="#486581">CHECK</text>
  <text x="360" y="28" font-size="11" font-weight="bold" fill="#486581">EVIDENCES CONTROLS</text>
  <line x1="40" y1="38" x2="680" y2="38" stroke="#bcccdc" stroke-width="1.5"/>
  <g font-family="Consolas, monospace" font-size="12" fill="#102a43">
    <rect x="40" y="52" width="250" height="28" rx="6" fill="#f0f4f8" stroke="#bcccdc"/>
    <text x="52" y="71">ssh_permit_root_login</text>
    <rect x="40" y="106" width="250" height="28" rx="6" fill="#f0f4f8" stroke="#bcccdc"/>
    <text x="52" y="125">svc_auditd_active</text>
    <rect x="40" y="160" width="250" height="28" rx="6" fill="#f0f4f8" stroke="#bcccdc"/>
    <text x="52" y="179">svc_firewall_active</text>
    <rect x="40" y="214" width="250" height="28" rx="6" fill="#f0f4f8" stroke="#bcccdc"/>
    <text x="52" y="233">fs_shadow_permissions</text>
  </g>
  <g stroke="#627d98" stroke-width="1.5" marker-end="url(#arr)">
    <line x1="294" y1="66" x2="334" y2="66"/>
    <line x1="294" y1="120" x2="334" y2="120"/>
    <line x1="294" y1="174" x2="334" y2="174"/>
    <line x1="294" y1="228" x2="334" y2="228"/>
  </g>
  <g font-size="12" font-weight="bold" fill="#ffffff" text-anchor="middle">
    <rect x="340" y="52" width="62" height="28" rx="14" fill="#334e68"/>
    <text x="371" y="71">AC-6</text>
    <rect x="408" y="52" width="62" height="28" rx="14" fill="#334e68"/>
    <text x="439" y="71">IA-2</text>
    <rect x="340" y="106" width="62" height="28" rx="14" fill="#334e68"/>
    <text x="371" y="125">AU-2</text>
    <rect x="408" y="106" width="62" height="28" rx="14" fill="#334e68"/>
    <text x="439" y="125">AU-12</text>
    <rect x="340" y="160" width="62" height="28" rx="14" fill="#334e68"/>
    <text x="371" y="179">SC-7</text>
    <rect x="340" y="214" width="62" height="28" rx="14" fill="#334e68"/>
    <text x="371" y="233">AC-3</text>
    <rect x="408" y="214" width="62" height="28" rx="14" fill="#334e68"/>
    <text x="439" y="233">SC-28</text>
  </g>
  <g font-size="11" font-style="italic" fill="#627d98">
    <text x="486" y="70">least privilege, individual identity</text>
    <text x="486" y="124">event logging, record generation</text>
    <text x="416" y="178">boundary protection</text>
    <text x="486" y="232">access enforcement, data at rest</text>
  </g>
</svg>
